<svg width="240" height="52" viewBox="0 0 240 52" fill="none" xmlns="http://www.w3.org/2000/svg">
<mask id="path-1-inside-1_16_1804" fill="white">
<path d="M94 0H231C233.761 0 236 2.23858 236 5V34C236 36.7614 233.761 39 231 39H94V0Z"/>
</mask>
<path d="M94 0H231C233.761 0 236 2.23858 236 5V34C236 36.7614 233.761 39 231 39H94V0Z" fill="#009DFF" stroke="#323232" stroke-width="12" mask="url(#path-1-inside-1_16_1804)"/>
<mask id="path-2-inside-2_16_1804" fill="white">
<path d="M9 5C9 2.23858 11.2386 0 14 0H107V39H14C11.2386 39 9 36.7614 9 34V5Z"/>
</mask>
<path d="M9 5C9 2.23858 11.2386 0 14 0H107V39H14C11.2386 39 9 36.7614 9 34V5Z" fill="#009DFF" stroke="#323232" stroke-width="12" mask="url(#path-2-inside-2_16_1804)"/>
<path d="M36.614 11.5455V29H32.6594L26.3526 19.8295H26.2504V29H21.5117V11.5455H25.5344L31.739 20.6818H31.8754V11.5455H36.614ZM38.8555 29V11.5455H51.435V15.3636H43.5941V18.3636H50.7873V22.1818H43.5941V25.1818H51.4009V29H38.8555ZM58.217 29L53.0692 11.5455H58.3533L60.7397 22.2841H60.8761L63.7056 11.5455H67.8647L70.6942 22.3182H70.8306L73.217 11.5455H78.5011L73.3533 29H68.8192L65.8533 19.25H65.717L62.7511 29H58.217ZM89.163 17C89.1175 16.4318 88.9045 15.9886 88.5238 15.6705C88.1488 15.3523 87.5778 15.1932 86.8107 15.1932C86.3221 15.1932 85.9215 15.2528 85.609 15.3722C85.3022 15.4858 85.0749 15.642 84.9272 15.8409C84.7795 16.0398 84.7028 16.267 84.6971 16.5227C84.6857 16.733 84.7227 16.9233 84.8079 17.0938C84.8988 17.2585 85.0408 17.4091 85.234 17.5455C85.4272 17.6761 85.6744 17.7955 85.9755 17.9034C86.2766 18.0114 86.6346 18.108 87.0494 18.1932L88.4812 18.5C89.4471 18.7045 90.2738 18.9744 90.9613 19.3097C91.6488 19.6449 92.2113 20.0398 92.6488 20.4943C93.0863 20.9432 93.4073 21.4489 93.6119 22.0114C93.8221 22.5739 93.93 23.1875 93.9357 23.8523C93.93 25 93.6431 25.9716 93.0749 26.767C92.5067 27.5625 91.6942 28.1676 90.6374 28.5824C89.5863 28.9972 88.3221 29.2045 86.8448 29.2045C85.3278 29.2045 84.0039 28.9801 82.8732 28.5312C81.7482 28.0824 80.8732 27.392 80.2482 26.4602C79.6289 25.5227 79.3164 24.3239 79.3107 22.8636H83.8107C83.8391 23.3977 83.9727 23.8466 84.2113 24.2102C84.4499 24.5739 84.7852 24.8494 85.217 25.0369C85.6545 25.2244 86.1744 25.3182 86.7766 25.3182C87.2823 25.3182 87.7056 25.2557 88.0465 25.1307C88.3874 25.0057 88.646 24.8324 88.8221 24.6108C88.9982 24.3892 89.0891 24.1364 89.0948 23.8523C89.0891 23.5852 89.0011 23.3523 88.8306 23.1534C88.6658 22.9489 88.3931 22.767 88.0124 22.608C87.6317 22.4432 87.1175 22.2898 86.4698 22.1477L84.7312 21.7727C83.1857 21.4375 81.967 20.8778 81.0749 20.0938C80.1886 19.304 79.7482 18.2273 79.7539 16.8636C79.7482 15.7557 80.0437 14.7869 80.6403 13.9574C81.2425 13.1222 82.0749 12.4716 83.1374 12.0057C84.2056 11.5398 85.43 11.3068 86.8107 11.3068C88.2198 11.3068 89.4386 11.5426 90.467 12.0142C91.4954 12.4858 92.288 13.1506 92.8448 14.0085C93.4073 14.8608 93.6914 15.858 93.6971 17H89.163Z" fill="#323232"/>
<path d="M113.668 28V10.5455H126.248V14.3636H118.407V17.3636H125.6V21.1818H118.407V24.1818H126.213V28H113.668ZM133.677 10.5455L136.541 15.625H136.677L139.575 10.5455H144.859L139.643 19.2727L145.064 28H139.643L136.677 22.8182H136.541L133.575 28H128.189L133.541 19.2727L128.359 10.5455H133.677ZM146.902 28V10.5455H154.436C155.732 10.5455 156.865 10.8011 157.837 11.3125C158.809 11.8239 159.564 12.5426 160.104 13.4688C160.644 14.3949 160.914 15.4773 160.914 16.7159C160.914 17.9659 160.635 19.0483 160.078 19.9631C159.527 20.8778 158.752 21.5824 157.752 22.0767C156.757 22.571 155.596 22.8182 154.266 22.8182H149.766V19.1364H153.311C153.868 19.1364 154.343 19.0398 154.735 18.8466C155.132 18.6477 155.436 18.3665 155.647 18.0028C155.863 17.6392 155.971 17.2102 155.971 16.7159C155.971 16.2159 155.863 15.7898 155.647 15.4375C155.436 15.0795 155.132 14.8068 154.735 14.6193C154.343 14.4261 153.868 14.3295 153.311 14.3295H151.641V28H146.902ZM162.652 28V10.5455H170.186C171.482 10.5455 172.615 10.7812 173.587 11.2528C174.559 11.7244 175.314 12.4034 175.854 13.2898C176.394 14.1761 176.664 15.2386 176.664 16.4773C176.664 17.7273 176.385 18.7812 175.828 19.6392C175.277 20.4972 174.502 21.1449 173.502 21.5824C172.507 22.0199 171.346 22.2386 170.016 22.2386H165.516V18.5568H169.061C169.618 18.5568 170.093 18.4886 170.485 18.3523C170.882 18.2102 171.186 17.9858 171.397 17.679C171.613 17.3722 171.721 16.9716 171.721 16.4773C171.721 15.9773 171.613 15.571 171.397 15.2585C171.186 14.9403 170.882 14.7074 170.485 14.5597C170.093 14.4062 169.618 14.3295 169.061 14.3295H167.391V28H162.652ZM172.88 19.9886L177.243 28H172.096L167.834 19.9886H172.88ZM178.684 28V10.5455H191.263V14.3636H183.422V17.3636H190.615V21.1818H183.422V24.1818H191.229V28H178.684ZM203.022 16C202.977 15.4318 202.764 14.9886 202.383 14.6705C202.008 14.3523 201.437 14.1932 200.67 14.1932C200.181 14.1932 199.781 14.2528 199.468 14.3722C199.162 14.4858 198.934 14.642 198.787 14.8409C198.639 15.0398 198.562 15.267 198.556 15.5227C198.545 15.733 198.582 15.9233 198.667 16.0938C198.758 16.2585 198.9 16.4091 199.093 16.5455C199.287 16.6761 199.534 16.7955 199.835 16.9034C200.136 17.0114 200.494 17.108 200.909 17.1932L202.341 17.5C203.306 17.7045 204.133 17.9744 204.821 18.3097C205.508 18.6449 206.071 19.0398 206.508 19.4943C206.946 19.9432 207.267 20.4489 207.471 21.0114C207.681 21.5739 207.789 22.1875 207.795 22.8523C207.789 24 207.502 24.9716 206.934 25.767C206.366 26.5625 205.554 27.1676 204.497 27.5824C203.446 27.9972 202.181 28.2045 200.704 28.2045C199.187 28.2045 197.863 27.9801 196.733 27.5312C195.608 27.0824 194.733 26.392 194.108 25.4602C193.488 24.5227 193.176 23.3239 193.17 21.8636H197.67C197.699 22.3977 197.832 22.8466 198.071 23.2102C198.309 23.5739 198.645 23.8494 199.076 24.0369C199.514 24.2244 200.034 24.3182 200.636 24.3182C201.142 24.3182 201.565 24.2557 201.906 24.1307C202.247 24.0057 202.505 23.8324 202.681 23.6108C202.858 23.3892 202.949 23.1364 202.954 22.8523C202.949 22.5852 202.86 22.3523 202.69 22.1534C202.525 21.9489 202.252 21.767 201.872 21.608C201.491 21.4432 200.977 21.2898 200.329 21.1477L198.591 20.7727C197.045 20.4375 195.826 19.8778 194.934 19.0938C194.048 18.304 193.608 17.2273 193.613 15.8636C193.608 14.7557 193.903 13.7869 194.5 12.9574C195.102 12.1222 195.934 11.4716 196.997 11.0057C198.065 10.5398 199.289 10.3068 200.67 10.3068C202.079 10.3068 203.298 10.5426 204.326 11.0142C205.355 11.4858 206.147 12.1506 206.704 13.0085C207.267 13.8608 207.551 14.858 207.556 16H203.022ZM219.007 16C218.961 15.4318 218.748 14.9886 218.368 14.6705C217.993 14.3523 217.422 14.1932 216.654 14.1932C216.166 14.1932 215.765 14.2528 215.453 14.3722C215.146 14.4858 214.919 14.642 214.771 14.8409C214.623 15.0398 214.547 15.267 214.541 15.5227C214.529 15.733 214.566 15.9233 214.652 16.0938C214.743 16.2585 214.885 16.4091 215.078 16.5455C215.271 16.6761 215.518 16.7955 215.819 16.9034C216.12 17.0114 216.478 17.108 216.893 17.1932L218.325 17.5C219.291 17.7045 220.118 17.9744 220.805 18.3097C221.493 18.6449 222.055 19.0398 222.493 19.4943C222.93 19.9432 223.251 20.4489 223.456 21.0114C223.666 21.5739 223.774 22.1875 223.779 22.8523C223.774 24 223.487 24.9716 222.919 25.767C222.35 26.5625 221.538 27.1676 220.481 27.5824C219.43 27.9972 218.166 28.2045 216.689 28.2045C215.172 28.2045 213.848 27.9801 212.717 27.5312C211.592 27.0824 210.717 26.392 210.092 25.4602C209.473 24.5227 209.16 23.3239 209.154 21.8636H213.654C213.683 22.3977 213.816 22.8466 214.055 23.2102C214.294 23.5739 214.629 23.8494 215.061 24.0369C215.498 24.2244 216.018 24.3182 216.62 24.3182C217.126 24.3182 217.549 24.2557 217.89 24.1307C218.231 24.0057 218.49 23.8324 218.666 23.6108C218.842 23.3892 218.933 23.1364 218.939 22.8523C218.933 22.5852 218.845 22.3523 218.674 22.1534C218.51 21.9489 218.237 21.767 217.856 21.608C217.475 21.4432 216.961 21.2898 216.314 21.1477L214.575 20.7727C213.029 20.4375 211.811 19.8778 210.919 19.0938C210.032 18.304 209.592 17.2273 209.598 15.8636C209.592 14.7557 209.887 13.7869 210.484 12.9574C211.086 12.1222 211.919 11.4716 212.981 11.0057C214.049 10.5398 215.274 10.3068 216.654 10.3068C218.064 10.3068 219.282 10.5426 220.311 11.0142C221.339 11.4858 222.132 12.1506 222.689 13.0085C223.251 13.8608 223.535 14.858 223.541 16H219.007Z" fill="white"/>
<path d="M154.082 43.7273V51H152.434L149.806 47.179H149.763V51H147.789V43.7273H149.465L152.05 47.5341H152.107V43.7273H154.082ZM155.016 51V43.7273H160.257V45.3182H156.99V46.5682H159.987V48.1591H156.99V49.4091H160.243V51H155.016ZM163.083 51L160.938 43.7273H163.14L164.134 48.2017H164.191L165.37 43.7273H167.103L168.282 48.2159H168.339L169.333 43.7273H171.535L169.39 51H167.501L166.265 46.9375H166.208L164.972 51H163.083ZM175.977 46C175.958 45.7633 175.869 45.5786 175.711 45.446C175.555 45.3134 175.317 45.2472 174.997 45.2472C174.793 45.2472 174.626 45.272 174.496 45.3217C174.368 45.3691 174.274 45.4342 174.212 45.517C174.151 45.5999 174.119 45.6946 174.116 45.8011C174.112 45.8887 174.127 45.968 174.162 46.0391C174.2 46.1077 174.26 46.1705 174.34 46.2273C174.421 46.2817 174.523 46.3314 174.649 46.3764C174.774 46.4214 174.924 46.4616 175.096 46.4972L175.693 46.625C176.095 46.7102 176.44 46.8227 176.726 46.9624C177.013 47.102 177.247 47.2666 177.43 47.456C177.612 47.643 177.746 47.8537 177.831 48.0881C177.918 48.3224 177.963 48.5781 177.966 48.8551C177.963 49.3333 177.844 49.7382 177.607 50.0696C177.37 50.401 177.032 50.6532 176.591 50.826C176.153 50.9988 175.627 51.0852 175.011 51.0852C174.379 51.0852 173.827 50.9917 173.356 50.8047C172.888 50.6177 172.523 50.33 172.263 49.9418C172.005 49.5511 171.874 49.0516 171.872 48.4432H173.747C173.759 48.6657 173.814 48.8527 173.914 49.0043C174.013 49.1558 174.153 49.2706 174.333 49.3487C174.515 49.4268 174.732 49.4659 174.983 49.4659C175.193 49.4659 175.37 49.4399 175.512 49.3878C175.654 49.3357 175.762 49.2635 175.835 49.1712C175.908 49.0788 175.946 48.9735 175.949 48.8551C175.946 48.7438 175.91 48.6468 175.839 48.5639C175.77 48.4787 175.656 48.4029 175.498 48.3366C175.339 48.268 175.125 48.2041 174.855 48.1449L174.131 47.9886C173.487 47.849 172.979 47.6158 172.607 47.2891C172.238 46.96 172.054 46.5114 172.057 45.9432C172.054 45.4815 172.177 45.0779 172.426 44.7322C172.677 44.3842 173.024 44.1132 173.466 43.919C173.912 43.7249 174.422 43.6278 174.997 43.6278C175.584 43.6278 176.092 43.7261 176.52 43.9226C176.949 44.1191 177.279 44.3961 177.511 44.7536C177.746 45.1087 177.864 45.5241 177.866 46H175.977ZM187.754 47.3636C187.754 48.1733 187.597 48.8563 187.282 49.4126C186.967 49.9666 186.542 50.3868 186.007 50.6733C185.472 50.9574 184.876 51.0994 184.218 51.0994C183.555 51.0994 182.956 50.9562 182.421 50.6697C181.888 50.3809 181.464 49.9595 181.149 49.4055C180.837 48.8492 180.681 48.1686 180.681 47.3636C180.681 46.554 180.837 45.8722 181.149 45.3182C181.464 44.7618 181.888 44.3416 182.421 44.0575C182.956 43.7711 183.555 43.6278 184.218 43.6278C184.876 43.6278 185.472 43.7711 186.007 44.0575C186.542 44.3416 186.967 44.7618 187.282 45.3182C187.597 45.8722 187.754 46.554 187.754 47.3636ZM185.723 47.3636C185.723 46.928 185.665 46.5611 185.549 46.2628C185.436 45.9621 185.266 45.7348 185.041 45.581C184.819 45.4247 184.544 45.3466 184.218 45.3466C183.891 45.3466 183.615 45.4247 183.39 45.581C183.168 45.7348 182.998 45.9621 182.882 46.2628C182.769 46.5611 182.712 46.928 182.712 47.3636C182.712 47.7992 182.769 48.1674 182.882 48.468C182.998 48.7663 183.168 48.9936 183.39 49.1499C183.615 49.3037 183.891 49.3807 184.218 49.3807C184.544 49.3807 184.819 49.3037 185.041 49.1499C185.266 48.9936 185.436 48.7663 185.549 48.468C185.665 48.1674 185.723 47.7992 185.723 47.3636ZM194.961 43.7273V51H193.313L190.685 47.179H190.642V51H188.668V43.7273H190.344L192.929 47.5341H192.986V43.7273H194.961ZM197.688 45.3182V43.7273H204.009V45.3182H201.821V51H199.875V45.3182H197.688ZM204.752 51V43.7273H206.726V46.5682H209.34V43.7273H211.314V51H209.34V48.1591H206.726V51H204.752ZM212.252 51V43.7273H217.493V45.3182H214.226V46.5682H217.224V48.1591H214.226V49.4091H217.479V51H212.252ZM225.188 46.1278C225.157 46.0024 225.109 45.8923 225.042 45.7976C224.976 45.7005 224.893 45.6188 224.794 45.5526C224.697 45.4839 224.583 45.433 224.453 45.3999C224.325 45.3643 224.184 45.3466 224.03 45.3466C223.699 45.3466 223.416 45.4259 223.181 45.5845C222.949 45.7431 222.772 45.9716 222.649 46.2699C222.528 46.5682 222.468 46.928 222.468 47.3494C222.468 47.7756 222.526 48.1402 222.642 48.4432C222.758 48.7462 222.931 48.9782 223.16 49.1392C223.39 49.3002 223.675 49.3807 224.016 49.3807C224.317 49.3807 224.566 49.3369 224.765 49.2493C224.967 49.1617 225.117 49.0374 225.216 48.8764C225.316 48.7154 225.365 48.526 225.365 48.3082L225.706 48.3438H224.044V46.9375H227.269V47.946C227.269 48.6089 227.128 49.1759 226.846 49.647C226.567 50.1158 226.181 50.4756 225.689 50.7266C225.199 50.9751 224.636 51.0994 224.002 51.0994C223.294 51.0994 222.672 50.9491 222.137 50.6484C221.602 50.3478 221.185 49.9193 220.884 49.3629C220.586 48.8066 220.436 48.1449 220.436 47.3778C220.436 46.7765 220.528 46.2438 220.71 45.7798C220.895 45.3158 221.15 44.924 221.477 44.6044C221.804 44.2824 222.181 44.0398 222.61 43.8764C223.038 43.7107 223.498 43.6278 223.988 43.6278C224.418 43.6278 224.819 43.6894 225.188 43.8125C225.56 43.9332 225.887 44.1061 226.172 44.331C226.458 44.5535 226.689 44.8175 226.864 45.1229C227.039 45.4283 227.146 45.7633 227.184 46.1278H225.188ZM235.235 47.3636C235.235 48.1733 235.077 48.8563 234.763 49.4126C234.448 49.9666 234.023 50.3868 233.488 50.6733C232.953 50.9574 232.356 51.0994 231.698 51.0994C231.035 51.0994 230.436 50.9562 229.901 50.6697C229.368 50.3809 228.945 49.9595 228.63 49.4055C228.317 48.8492 228.161 48.1686 228.161 47.3636C228.161 46.554 228.317 45.8722 228.63 45.3182C228.945 44.7618 229.368 44.3416 229.901 44.0575C230.436 43.7711 231.035 43.6278 231.698 43.6278C232.356 43.6278 232.953 43.7711 233.488 44.0575C234.023 44.3416 234.448 44.7618 234.763 45.3182C235.077 45.8722 235.235 46.554 235.235 47.3636ZM233.204 47.3636C233.204 46.928 233.146 46.5611 233.03 46.2628C232.916 45.9621 232.747 45.7348 232.522 45.581C232.299 45.4247 232.025 45.3466 231.698 45.3466C231.371 45.3466 231.095 45.4247 230.871 45.581C230.648 45.7348 230.479 45.9621 230.363 46.2628C230.249 46.5611 230.192 46.928 230.192 47.3636C230.192 47.7992 230.249 48.1674 230.363 48.468C230.479 48.7663 230.648 48.9936 230.871 49.1499C231.095 49.3037 231.371 49.3807 231.698 49.3807C232.025 49.3807 232.299 49.3037 232.522 49.1499C232.747 48.9936 232.916 48.7663 233.03 48.468C233.146 48.1674 233.204 47.7992 233.204 47.3636Z" fill="#323232"/>
</svg>
